<?xml version="1.0" encoding="UTF-8" standalone="no"?>
<!-- Created with Inkscape (http://www.inkscape.org/) -->

<svg
   xmlns:dc="http://purl.org/dc/elements/1.1/"
   xmlns:cc="http://creativecommons.org/ns#"
   xmlns:rdf="http://www.w3.org/1999/02/22-rdf-syntax-ns#"
   xmlns:svg="http://www.w3.org/2000/svg"
   xmlns="http://www.w3.org/2000/svg"
   xmlns:sodipodi="http://sodipodi.sourceforge.net/DTD/sodipodi-0.dtd"
   xmlns:inkscape="http://www.inkscape.org/namespaces/inkscape"
   width="168.18016mm"
   height="241.05389mm"
   viewBox="0 0 168.18016 241.05389"
   version="1.1"
   id="svg8"
   inkscape:version="0.92.4 (5da689c313, 2019-01-14)"
   sodipodi:docname="drawing.svg">
  <defs
     id="defs2" />
  <sodipodi:namedview
     id="base"
     pagecolor="#ffffff"
     bordercolor="#666666"
     borderopacity="1.0"
     inkscape:pageopacity="0.0"
     inkscape:pageshadow="2"
     inkscape:zoom="0.62207031"
     inkscape:cx="417.57429"
     inkscape:cy="122.98659"
     inkscape:document-units="mm"
     inkscape:current-layer="layer1"
     showgrid="false"
     fit-margin-top="0"
     fit-margin-left="0"
     fit-margin-right="0"
     fit-margin-bottom="0"
     inkscape:window-width="3840"
     inkscape:window-height="2050"
     inkscape:window-x="-12"
     inkscape:window-y="-12"
     inkscape:window-maximized="1" />
  <metadata
     id="metadata5">
    <rdf:RDF>
      <cc:Work
         rdf:about="">
        <dc:format>image/svg+xml</dc:format>
        <dc:type
           rdf:resource="http://purl.org/dc/dcmitype/StillImage" />
        <dc:title></dc:title>
      </cc:Work>
    </rdf:RDF>
  </metadata>
  <g
     inkscape:label="Layer 1"
     inkscape:groupmode="layer"
     id="layer1"
     transform="translate(-13.68601,-20.655838)">
    <path 
       style="fill:#2be40f;stroke-width:0.35277775;"
       d="m 143.15556,261.33881 c -3.54157,-1.31665 -6.55176,-4.8104 -7.27405,-8.44256 -0.46437,-2.33516 -1.25927,-9.47061 -2.03115,-18.23269 -0.79022,-8.97018 -0.89285,-31.97629 -0.16053,-35.98333 1.36455,-7.46644 4.54947,-11.42269 9.17277,-11.39428 1.09194,0.007 2.65371,0.28601 3.47061,0.62066 1.43724,0.58877 1.59126,0.58242 4.7625,-0.19629 4.34305,-1.06645 12.63553,-1.1662 16.12541,-0.19397 6.78296,1.88963 11.72154,6.58885 13.58266,12.92433 1.52569,5.19364 1.40485,11.05206 -0.34154,16.55763 -2.83353,8.93282 -12.03276,17.05135 -24.4136,21.54554 l -2.20486,0.80036 v 1.83077 c 0,1.00693 0.16961,4.7091 0.3769,8.22704 0.43081,7.3111 0.28779,7.97176 -2.18384,10.08738 -2.22416,1.90379 -6.39745,2.77283 -8.88128,1.84941 z m 5.3438,-5.75931 c 0.6772,-0.42268 0.79224,-0.72193 0.62765,-1.63271 -0.11085,-0.61334 -0.29486,-4.8458 -0.4089,-9.40545 -0.17056,-6.81929 -0.11952,-8.39848 0.28769,-8.90013 0.27228,-0.33542 1.96932,-1.09162 3.7712,-1.68044 11.54833,-3.77382 19.7968,-10.50194 22.59021,-18.42639 0.96645,-2.74167 1.34229,-9.00531 0.72016,-12.00206 -1.74546,-8.40787 -8.77284,-12.44887 -19.56244,-11.24912 -2.22781,0.24772 -5.15937,0.85163 -6.80348,1.40155 l -2.88892,0.96627 -1.34151,-1.00025 c -3.5599,-2.65433 -5.8869,0.21096 -6.80635,8.38085 -0.45777,4.06754 -0.46151,16.66628 -0.007,24.16528 0.78775,13.00202 2.16493,25.56417 2.97189,27.10858 0.63886,1.22266 2.30564,2.76756 3.19855,2.96466 1.01783,0.22467 2.69237,-0.0921 3.65141,-0.69064 z m 0.28521,-26.93209 c -1.6012,-1.25949 -1.71636,-2.40512 -1.58722,-15.78905 0.10209,-10.58071 0.19914,-12.49137 0.64921,-12.78136 1.5816,-1.0191 6.33246,-2.1971 9.02068,-2.23674 2.5167,-0.0371 3.08804,0.0813 4.92373,1.02003 2.60619,1.33279 4.15295,3.30667 5.14151,6.5613 1.06212,3.49681 0.84541,6.44896 -0.69638,9.48642 -1.5732,3.09933 -4.46274,6.8235 -7.62471,9.82706 -4.52917,4.30227 -7.71742,5.5716 -9.82682,3.91234 z m 8.57806,-10.30253 c 3.0322,-3.55757 4.64075,-6.24848 4.85118,-8.11541 0.36574,-3.24488 -1.36778,-6.38271 -3.83162,-6.93557 -1.71557,-0.38496 -4.95044,0.15208 -5.50785,0.91438 -0.32675,0.44686 -0.44167,2.9777 -0.44167,9.72677 v 9.12275 l 1.29869,-0.98809 c 0.71428,-0.54345 2.34835,-2.21962 3.63127,-3.72483 z M 39.367401,259.53614 c -3.00195,-1.62761 -4.81223,-4.86078 -5.43288,-9.70313 -0.60058,-4.68573 -1.08394,-19.42975 -1.08895,-33.21595 l -0.005,-12.57844 -2.91041,0.16677 c -1.60073,0.0917 -3.6723,0.31483 -4.60348,0.49581 -4.11628,0.79997 -7.28592,0.1177 -9.50213,-2.04537 -1.56542,-1.52787 -2.15332,-3.10593 -2.13826,-5.73949 0.0293,-5.12485 3.25786,-8.00423 10.13901,-9.04251 5.16396,-0.77917 18.23114,-1.26726 30.3836,-1.13489 l 11.31417,0.12324 2.08384,1.06588 c 1.79182,0.91652 2.22614,1.34413 3.09931,3.0515 1.18804,2.32302 1.61813,5.82202 0.96055,7.81452 -0.56229,1.70374 -3.43992,4.25699 -5.38186,4.77518 -1.31591,0.35114 -9.88438,1.0946 -12.73185,1.1047 l -0.98334,0.004 0.0431,24.65419 c 0.0473,27.06992 0.15347,25.62861 -2.06225,27.99688 -1.95845,2.09328 -8.87595,3.45878 -11.18359,2.20762 z m 6.70277,-5.56683 c 0.38806,-0.19876 0.82219,-0.53604 0.96474,-0.74953 0.14255,-0.21349 0.26162,-12.01042 0.26459,-26.21539 0.005,-25.61463 0.0114,-25.8328 0.73164,-26.50382 0.8516,-0.79339 1.89924,-0.94501 10.45501,-1.51305 5.66444,-0.37609 6.53052,-0.51529 7.36981,-1.18452 0.87009,-0.69378 0.93017,-0.89768 0.70566,-2.3948 -0.48185,-3.21322 -0.0928,-3.0991 -11.3243,-3.32195 -10.04179,-0.19925 -25.08239,0.29052 -30.02253,0.97763 -3.20041,0.44514 -5.31103,1.21354 -5.78963,2.1078 -0.51115,0.95509 -0.4137,3.36306 0.1552,3.83521 0.78707,0.6532 2.78944,0.84175 4.66578,0.43935 0.94905,-0.20354 4.12177,-0.48165 7.0505,-0.61803 5.01672,-0.2336 5.36536,-0.20754 6.02327,0.45037 0.67363,0.67363 0.7066,1.40222 0.93202,20.59929 0.30184,25.70425 0.74023,31.88522 2.41224,34.01085 0.67997,0.86443 0.85373,0.90815 2.71347,0.68277 1.09284,-0.13245 2.30448,-0.40343 2.69253,-0.60218 z m 45.28608,4.30532 c -10.08765,-1.48198 -16.18952,-8.69752 -18.17689,-21.4944 -0.89598,-5.76926 -0.89802,-18.3128 -0.004,-22.74137 1.4782,-7.31994 3.85472,-12.81411 8.60621,-19.89631 3.67494,-5.47756 5.6311,-7.53819 8.49393,-8.94756 1.86747,-0.91935 2.77961,-1.15441 4.47029,-1.15197 2.31459,0.003 5.0177,0.85514 6.717059,2.11665 0.69745,0.51774 1.85449,0.88176 3.35139,1.05437 8.08294,0.93205 14.73697,6.15284 18.13664,14.2301 2.02689,4.81568 2.47698,7.67985 2.47611,15.75692 -7e-4,6.17755 -0.13088,8.09299 -0.78385,11.52937 -1.93512,10.18396 -5.33379,16.9483 -11.36724,22.62414 -4.36229,4.10373 -8.83385,6.08532 -15.664529,6.94182 -3.15238,0.39527 -3.42314,0.39433 -6.25542,-0.0218 z m 9.360609,-5.96352 c 10.42134,-2.66533 17.08661,-12.32153 19.0729,-27.63159 1.37508,-10.5988 0.0966,-19.03063 -3.75973,-24.79633 -3.21473,-4.80642 -7.79481,-7.34142 -13.13026,-7.26739 -1.93217,0.0268 -2.19627,-0.0697 -3.618889,-1.32191 -1.90643,-1.6781 -4.01321,-2.28455 -5.91199,-1.7018 -1.92321,0.59025 -3.86996,2.65076 -7.17302,7.59219 -5.91816,8.85369 -8.04928,15.24549 -8.43821,25.30845 -0.33426,8.64839 1.03787,18.0606 3.2771,22.4795 1.78867,3.52977 5.43004,6.60935 8.93132,7.5534 2.54437,0.68603 7.62612,0.58464 10.750779,-0.21452 z m -7.636679,-7.90331 c -4.59097,-2.03519 -6.95358,-10.45778 -6.49371,-23.14979 0.31606,-8.72311 1.53931,-13.00745 4.74136,-16.60626 2.84793,-3.20082 8.00438,-5.02575 11.579899,-4.09827 8.53004,2.21267 10.9863,11.45671 7.18284,27.03245 -2.45994,10.07383 -4.91496,14.25523 -9.66955,16.4692 -2.007559,0.93482 -5.634569,1.10906 -7.340839,0.35267 z m 5.72635,-5.45953 c 1.827419,-0.98006 3.386899,-3.55373 4.737179,-7.81796 1.91085,-6.03448 2.79063,-10.8868 2.81338,-15.51675 0.0234,-4.7681 -0.43239,-6.61692 -2.07271,-8.40681 -1.14911,-1.2539 -1.26373,-1.29457 -3.64822,-1.29457 -2.193429,0 -2.629079,0.11999 -3.995859,1.10064 -1.76692,1.26776 -3.63385,4.56002 -4.17701,7.36602 -1.37774,7.11751 -0.3933,20.53793 1.76712,24.09046 0.58036,0.95432 0.89957,1.13315 2.02272,1.13315 0.73348,0 1.88251,-0.29438 2.5534,-0.65418 z m -33.18433,-67.05201 -1.03119,-1.0312 V 139.4407 108.01635 h -15.43953 c -17.54312,0 -17.15728,0.0584 -18.68293,-2.82667 -1.04228,-1.97099 -1.03156,-3.79295 0.0315,-5.359495 1.3944,-2.05476 64.32785,-76.684755 65.49276,-77.664958 2.16755,-1.823879 5.492549,-2.017681 7.836489,-0.456763 1.54553,1.029229 65.40443,79.005226 66.30606,80.964136 0.85383,1.85507 0.64586,3.5605 -0.64093,5.25593 -1.7029,2.24366 -1.38119,2.20449 -18.10259,2.20449 h -15.18695 v 30.36602 30.36602 l -1.0312,1.0312 -1.03119,1.0312 H 100.39795 66.653401 Z m 65.020659,-34.98276 0.094,-30.3695 0.98981,-0.85133 0.98982,-0.85132 h 16.2375 c 9.93605,0 16.19187,-0.12818 16.11991,-0.33028 -0.26402,-0.74153 -63.94541,-78.321792 -64.44856,-78.514871 -0.29987,-0.115069 -0.905709,0.07583 -1.346319,0.424216 -0.4406,0.348385 -15.08781,17.619678 -32.54936,38.380649 l -31.74827,37.747226 16.70835,0.17639 c 15.79833,0.16678 16.74878,0.21299 17.45066,0.84843 l 0.7423,0.67203 v 31.51894 31.51893 h 30.333109 30.33311 z"
       id="path4529"
       inkscape:connector-curvature="0" />
  </g>
</svg>
