<?xml version="1.0" encoding="UTF-8" standalone="no"?>
<!-- Created with Inkscape (http://www.inkscape.org/) -->

<svg
   xmlns:dc="http://purl.org/dc/elements/1.1/"
   xmlns:cc="http://creativecommons.org/ns#"
   xmlns:rdf="http://www.w3.org/1999/02/22-rdf-syntax-ns#"
   xmlns:svg="http://www.w3.org/2000/svg"
   xmlns="http://www.w3.org/2000/svg"
   xmlns:sodipodi="http://sodipodi.sourceforge.net/DTD/sodipodi-0.dtd"
   xmlns:inkscape="http://www.inkscape.org/namespaces/inkscape"
   width="86.797516mm"
   height="70.64373mm"
   viewBox="0 0 86.797516 70.64373"
   version="1.1"
   id="svg8"
   inkscape:version="0.92.4 (5da689c313, 2019-01-14)"
   sodipodi:docname="menu.svg">
  <defs
     id="defs2" />
  <sodipodi:namedview
     id="base"
     pagecolor="#ffffff"
     bordercolor="#666666"
     borderopacity="1.0"
     inkscape:pageopacity="0.0"
     inkscape:pageshadow="2"
     inkscape:zoom="2.4882812"
     inkscape:cx="168.58869"
     inkscape:cy="120.36396"
     inkscape:document-units="mm"
     inkscape:current-layer="layer1"
     showgrid="false"
     fit-margin-top="0"
     fit-margin-left="0"
     fit-margin-right="0"
     fit-margin-bottom="0"
     inkscape:window-width="3840"
     inkscape:window-height="2050"
     inkscape:window-x="-12"
     inkscape:window-y="-12"
     inkscape:window-maximized="1" />
  <metadata
     id="metadata5">
    <rdf:RDF>
      <cc:Work
         rdf:about="">
        <dc:format>image/svg+xml</dc:format>
        <dc:type
           rdf:resource="http://purl.org/dc/dcmitype/StillImage" />
        <dc:title></dc:title>
      </cc:Work>
    </rdf:RDF>
  </metadata>
  <g
     inkscape:label="Layer 1"
     inkscape:groupmode="layer"
     id="layer1"
     transform="translate(-38.259914,-110.0359)">
    <path
       style="fill:#000000;stroke-width:0.26458332"
       d="m 39.516684,180.39392 c -0.64262,-0.37429 -1.25677,-1.64842 -1.25677,-2.60732 0,-0.51308 0.27856,-1.11449 0.77203,-1.66679 l 0.77202,-0.86407 41.36287,-0.0733 c 22.749576,-0.0403 41.640906,-0.006 41.980726,0.0768 1.91437,0.46513 2.57377,3.19551 1.12229,4.64699 l -0.7734,0.7734 -41.758376,-0.008 c -27.87217,-0.005 -41.91234,-0.0977 -42.22139,-0.27774 z m 0.65138,-21.44105 c -1.86073,-0.54313 -2.48257,-3.0219 -1.13614,-4.52889 l 0.772,-0.86407 27.94151,-0.0697 c 30.72319,-0.0767 29.04112,-0.16194 29.90896,1.51627 0.70777,1.36869 0.35794,2.79072 -0.8962,3.64297 -0.64423,0.43778 -2.39326,0.46954 -28.20349,0.51205 -16.93742,0.0279 -27.85114,-0.0523 -28.38664,-0.20861 z m 0.0547,-21.6847 c -1.11897,-0.3249 -1.71663,-1.06451 -1.88707,-2.33526 -0.17007,-1.26797 0.32622,-2.1912 1.50581,-2.80119 0.69462,-0.3592 5.45347,-0.3971 42.22027,-0.33624 l 41.437416,0.0686 0.77203,0.86407 c 0.8951,1.00181 1.03945,2.47284 0.34057,3.47063 -0.99289,1.41755 1.00094,1.35572 -42.885566,1.32998 -23.06828,-0.0135 -41.04124,-0.12638 -41.50346,-0.26059 z m -0.37167,-21.87481 c -0.5073,-0.25444 -1.07109,-0.76027 -1.25287,-1.12407 -0.72984,-1.46065 -0.20548,-3.03847 1.25287,-3.7699 0.86028,-0.43148 2.76145,-0.46264 28.24909,-0.46303 29.92817,-5.2e-4 28.70447,-0.0648 29.54111,1.55311 0.52349,1.01232 0.52349,1.70148 0,2.7138 -0.83664,1.61789 0.38706,1.55356 -29.54111,1.55311 -25.48764,-2.7e-4 -27.38881,-0.0315 -28.24909,-0.46302 z"
       id="path4529"
       inkscape:connector-curvature="0" />
  </g>
</svg>
