<?xml version="1.0" encoding="UTF-8" standalone="no"?><!DOCTYPE svg PUBLIC "-//W3C//DTD SVG 1.1//EN" "http://www.w3.org/Graphics/SVG/1.1/DTD/svg11.dtd"><svg width="100%" height="100%" viewBox="0 0 512 511" version="1.1" xmlns="http://www.w3.org/2000/svg" xmlns:xlink="http://www.w3.org/1999/xlink" xml:space="preserve" xmlns:serif="http://www.serif.com/" style="fill-rule:evenodd;clip-rule:evenodd;stroke-linejoin:round;stroke-miterlimit:2;"><g id="Livello-2" serif:id="Livello 2"><path d="M121.228,202.473l-34.519,-20.631l-9.932,-42.636l37.833,-42.178l46.341,5.96l20.334,31.175l-34.994,30.258l-25.063,38.052Z" style="fill:#1e1c1a;fill-rule:nonzero;"/><path d="M152.912,380.353l-35.939,-49.513l44.451,24.755l-8.512,24.758Z" style="fill:#b8b6b6;fill-rule:nonzero;"/><path d="M116.973,330.84l75.661,-18.338l8.512,-30.258l-99.306,-13.753l15.133,62.349Z" style="fill:#e1dfdf;fill-rule:nonzero;"/><path d="M247.488,350.094l8.513,10.087l-0,-29.34l-34.995,4.582l2.365,10.087l24.117,4.584Z" style="fill:#1e1c1a;fill-rule:nonzero;"/><path d="M201.146,282.244l26.481,-20.629l-26.481,-44.93l-30.737,24.756l-8.985,35.301l39.722,5.502Z" style="fill:#1e1c1a;fill-rule:nonzero;"/><path d="M101.841,268.49l68.568,-27.049l-8.986,35.3l-59.582,-8.251Z" style="fill:#f2f1f0;fill-rule:nonzero;"/><path d="M256,330.84l0,-75.187l-28.372,5.96l-6.621,73.812l34.993,-4.585Z" style="fill:#f2f1f0;fill-rule:nonzero;"/><path d="M201.146,216.685l54.854,-8.712l-0,47.681l-28.373,5.96l-26.481,-44.929Z" style="fill:#e3e1e0;fill-rule:nonzero;"/><path d="M192.634,312.502l28.372,22.922l6.621,-73.81l-26.481,20.63l-8.512,30.258Z" style="fill:#c2c0c0;fill-rule:nonzero;"/><path d="M161.424,355.596l59.582,-20.171l-28.372,-22.923l-75.662,18.338l44.452,24.756Z" style="fill:#d0cecd;fill-rule:nonzero;"/><path d="M256,380.353l0,-20.171l-8.512,-10.087l0,30.258l8.512,0Z" style="fill:#c6c4c3;fill-rule:nonzero;"/><path d="M217.224,380.353l6.149,-34.842l24.115,4.584l-0,30.258l-30.264,0Z" style="fill:#d0cecd;fill-rule:nonzero;"/><path d="M256,384.937l0,29.035l-63.367,-16.81l24.591,-16.809l38.776,4.584Z" style="fill:#d7d6d5;fill-rule:nonzero;"/><path d="M161.424,355.596l31.21,41.568l24.591,-16.81l6.146,-34.843l-61.947,10.085Z" style="fill:#f2f1f0;fill-rule:nonzero;"/><path d="M221.007,335.424l-59.583,20.171l61.948,-10.084l-2.365,-10.087Z" style="fill:#d5d3d2;fill-rule:nonzero;"/><path d="M192.634,397.163l-31.21,-41.567l-8.513,24.757l39.723,16.81Z" style="fill:#c2c0c0;fill-rule:nonzero;"/><path d="M256,384.937l0,29.035l63.368,-16.81l-24.591,-16.809l-38.777,4.584Z" style="fill:#c1bebe;fill-rule:nonzero;"/><path d="M350.577,355.596l-31.21,41.568l-24.591,-16.81l-6.147,-34.843l61.948,10.085Z" style="fill:#f2f1f0;fill-rule:nonzero;"/><path d="M319.367,397.163l31.21,-41.567l8.512,24.757l-39.722,16.81Z" style="fill:#c2c0c0;fill-rule:nonzero;"/><path d="M256,207.974l0,-71.061l-61.475,8.253l6.622,71.519l54.853,-8.711Z" style="fill:#f2f1f0;fill-rule:nonzero;"/><path d="M101.841,268.49l68.568,-27.049l30.738,-24.756l-6.622,-71.52l-92.684,123.325Z" style="fill:#e3e1e0;fill-rule:nonzero;"/><path d="M101.841,268.49l19.388,-66.016l23.171,-38.054l6.137,39.275l-48.696,64.795Z" style="fill:#b8b6b6;fill-rule:nonzero;"/><path d="M194.525,145.166l-13.239,-11.003l-36.885,30.258l6.137,39.273l43.987,-58.528Z" style="fill:#c2c0c0;fill-rule:nonzero;"/><path d="M181.285,134.163l74.715,-10.544l0,13.295l-61.475,8.252l-13.24,-11.003Z" style="fill:#d7d6d5;fill-rule:nonzero;"/><path d="M390.772,202.473l34.52,-20.631l9.932,-42.636l-37.831,-42.178l-46.343,5.96l-20.334,31.175l34.993,30.258l25.063,38.052Z" style="fill:#1e1c1a;fill-rule:nonzero;"/><path d="M359.09,380.353l35.937,-49.513l-44.449,24.755l8.512,24.758Z" style="fill:#b8b6b6;fill-rule:nonzero;"/><path d="M395.028,330.84l-75.661,-18.338l-8.513,-30.258l99.305,-13.753l-15.131,62.349Z" style="fill:#e1dfdf;fill-rule:nonzero;"/><path d="M264.512,350.094l-8.512,10.087l-0,-29.34l34.995,4.582l-2.365,10.087l-24.118,4.584Z" style="fill:#1e1c1a;fill-rule:nonzero;"/><path d="M310.854,282.244l-26.48,-20.629l26.48,-44.93l30.738,24.756l8.985,35.301l-39.723,5.502Z" style="fill:#1e1c1a;fill-rule:nonzero;"/><path d="M410.159,268.49l-68.568,-27.049l8.986,35.3l59.582,-8.251Z" style="fill:#f2f1f0;fill-rule:nonzero;"/><path d="M256,330.84l0,-75.187l28.373,5.96l6.62,73.812l-34.993,-4.585Z" style="fill:#e1dfdf;fill-rule:nonzero;"/><path d="M310.854,216.685l-54.853,-8.712l0,47.681l28.373,5.96l26.48,-44.929Z" style="fill:#cbc9c9;fill-rule:nonzero;"/><path d="M319.367,312.502l-28.372,22.922l-6.621,-73.81l26.481,20.63l8.512,30.258Z" style="fill:#c2c0c0;fill-rule:nonzero;"/><path d="M350.577,355.596l-59.582,-20.171l28.372,-22.923l75.661,18.338l-44.451,24.756Z" style="fill:#d0cecd;fill-rule:nonzero;"/><path d="M294.777,380.353l-38.776,0l-0,11.92l38.776,-11.92Z" style="fill:#1e1c1a;fill-rule:nonzero;"/><path d="M256,380.353l0,-20.171l8.513,-10.087l-0,30.258l-8.513,0Z" style="fill:#b0aeae;fill-rule:nonzero;"/><path d="M294.777,380.353l-6.149,-34.842l-24.115,4.584l-0,30.258l30.264,0Z" style="fill:#d0cecd;fill-rule:nonzero;"/><path d="M290.994,335.424l59.582,20.171l-61.947,-10.084l2.365,-10.087Z" style="fill:#d5d3d2;fill-rule:nonzero;"/><path d="M256,207.974l0,-71.061l61.474,8.253l-6.62,71.519l-54.854,-8.711Z" style="fill:#f2f1f0;fill-rule:nonzero;"/><path d="M410.159,268.49l-68.568,-27.049l-30.736,-24.756l6.62,-71.52l92.684,123.325Z" style="fill:#e3e1e0;fill-rule:nonzero;"/><path d="M410.159,268.49l-19.386,-66.016l-23.171,-38.054l-6.139,39.275l48.696,64.795Z" style="fill:#b8b6b6;fill-rule:nonzero;"/><path d="M317.475,145.166l13.241,-11.003l36.885,30.258l-6.139,39.273l-43.987,-58.528Z" style="fill:#c2c0c0;fill-rule:nonzero;"/><path d="M330.716,134.163l-74.716,-10.544l0,13.295l61.474,8.252l13.242,-11.003Z" style="fill:#d7d6d5;fill-rule:nonzero;"/><path d="M217.224,380.353l38.776,0l0,11.92l-38.776,-11.92Z" style="fill:#1e1c1a;fill-rule:nonzero;"/></g></svg>